# xmcd
#
# Track frame offsets: 
#        150
#        31981
#        71309
#        89020
#        117058
#        140540
#        160736
#
# Disc length: 2341 seconds
#
# Revision: 0
# Processed by: cddbd v1.5.2PL0 Copyright (c) Steve Scherf et al.
# Submitted via: ExactAudioCopy v1.0b4
#
DISCID=55092307
DTITLE=Magic Slim - In The Heart Of The Blues (LP)
DYEAR=1980
DGENRE=Blues
TTITLE0=In The Heart Of The Blues
TTITLE1=Mustang Sally
TTITLE2=Worried Life Blues
TTITLE3=Don't Tell Me About Your Trouble
TTITLE4=I'm A Man
TTITLE5=Walking Whole Night Long
TTITLE6=If It's Too Late
EXTD=
EXTT0=
EXTT1=
EXTT2=
EXTT3=
EXTT4=
EXTT5=
EXTT6=
PLAYORDER=
